<svg width="181" height="45" viewBox="0 0 181 45" fill="none" xmlns="http://www.w3.org/2000/svg">
<path d="M179.544 16.4846C179.725 19.1498 177.631 21.9983 173.279 24.8618C168.966 27.6999 162.598 30.4409 154.625 32.9275C138.686 37.8981 116.442 41.8188 91.673 43.501C66.9045 45.1832 44.334 44.3064 27.8698 41.5364C19.6337 40.1507 12.9538 38.2959 8.29618 36.0671C3.59685 33.8184 1.13675 31.2792 0.955733 28.614C0.774715 25.9487 2.8689 23.1002 7.22101 20.2368C11.5345 17.3987 17.9022 14.6576 25.8754 12.1711C41.8139 7.2004 64.0585 3.27977 88.827 1.59754C113.596 -0.084692 136.166 0.79218 152.63 3.56214C160.866 4.9478 167.546 6.80266 172.204 9.03144C176.903 11.2802 179.363 13.8193 179.544 16.4846Z" stroke="#FBC267"/>
</svg>
