<svg width="130" height="65" viewBox="0 0 130 65" fill="none" xmlns="http://www.w3.org/2000/svg">
<g clip-path="url(#clip0_91_40)">
<path d="M58.175 37.2939H57.1188V42.4939H58.175V37.2939Z" fill="url(#paint0_linear_91_40)"/>
<path d="M62.8875 40.5439L59.8812 37.2939H59.3125V42.4939H60.2875V39.2439L63.2938 42.4939H63.8625V37.2939H62.8875V40.5439Z" fill="url(#paint1_linear_91_40)"/>
<path d="M64.1063 38.2689H66.1375V42.4939H67.1937V38.2689H69.3063V37.2939H64.1063V38.2689Z" fill="url(#paint2_linear_91_40)"/>
<path d="M70.525 40.2189H73.0438V39.2439H70.525V38.2689H74.3438V37.2939H69.4688V42.4939H74.5875V41.5189H70.525V40.2189Z" fill="url(#paint3_linear_91_40)"/>
<path d="M80.0312 39.8127C80.275 39.5689 80.4375 39.1627 80.4375 38.8377C80.4375 38.3502 80.275 38.0252 79.95 37.7002C79.625 37.4564 79.2188 37.2939 78.65 37.2939H75.1562V42.4939H76.2125V40.3814H78.1625L79.5438 42.4939H80.6813L79.3 40.3002C79.5437 40.2189 79.7875 40.0564 80.0312 39.8127ZM79.3812 38.8377C79.3812 39.0002 79.3 39.1627 79.2188 39.2439C79.1375 39.3252 78.8938 39.4064 78.65 39.4064H76.1312V38.3502H78.65C78.8938 38.3502 79.0563 38.4314 79.2188 38.5127C79.3 38.5127 79.3812 38.5939 79.3812 38.8377Z" fill="url(#paint4_linear_91_40)"/>
<path d="M82.3063 37.2939H81.25V42.4939H82.3063V37.2939Z" fill="url(#paint5_linear_91_40)"/>
<path d="M88.4 37.9437C87.8312 37.4562 87.0187 37.2124 86.125 37.2124C85.2312 37.2124 84.5 37.4562 83.85 37.9437C83.2812 38.4312 82.9562 39.0812 82.9562 39.8937C82.9562 40.7062 83.2812 41.3562 83.85 41.8437C84.4187 42.3312 85.2312 42.6562 86.125 42.6562C87.0187 42.6562 87.8312 42.4124 88.4 41.8437C88.9687 41.3562 89.2937 40.6249 89.2937 39.8937C89.2937 39.0812 88.9687 38.4312 88.4 37.9437ZM88.2375 39.8937C88.2375 40.3812 88.075 40.7874 87.6687 41.1937C87.2625 41.5187 86.775 41.6812 86.125 41.6812C85.475 41.6812 84.9875 41.5187 84.5812 41.1937C84.175 40.8687 84.0125 40.4624 84.0125 39.8937C84.0125 39.4062 84.175 38.9999 84.5812 38.5937C84.9875 38.2687 85.475 38.1062 86.125 38.1062C86.775 38.1062 87.2625 38.2687 87.6687 38.5937C88.075 38.9999 88.2375 39.4062 88.2375 39.8937Z" fill="url(#paint6_linear_91_40)"/>
<path d="M94.9 39.8127C95.1438 39.5689 95.3063 39.1627 95.3063 38.8377C95.3063 38.3502 95.1437 38.0252 94.8187 37.7002C94.4937 37.4564 94.0875 37.2939 93.5187 37.2939H90.025V42.4939H91.0812V40.3814H93.0312L94.4125 42.4939H95.55L94.1688 40.3002C94.4125 40.2189 94.6563 40.0564 94.9 39.8127ZM94.25 38.8377C94.25 39.0002 94.1688 39.1627 94.0875 39.2439C94.0063 39.3252 93.7625 39.4064 93.5187 39.4064H91V38.3502H93.5187C93.7625 38.3502 93.925 38.4314 94.0875 38.5127C94.1688 38.5127 94.25 38.5939 94.25 38.8377Z" fill="url(#paint7_linear_91_40)"/>
<path d="M102.05 37.2939H99.775V42.4939H102.05C102.862 42.4939 103.594 42.2502 104.081 41.7627C104.569 41.2752 104.812 40.7064 104.812 39.8939C104.812 39.1627 104.569 38.5127 104 38.0252C103.594 37.5377 102.944 37.2939 102.05 37.2939ZM103.838 39.8939C103.838 40.3814 103.675 40.7877 103.35 41.1127C103.025 41.4377 102.619 41.5189 102.05 41.5189H100.75V38.2689H102.05C102.537 38.2689 103.025 38.4314 103.35 38.7564C103.675 39.0002 103.838 39.4064 103.838 39.8939Z" fill="url(#paint8_linear_91_40)"/>
<path d="M106.6 40.2189H109.119V39.2439H106.6V38.2689H110.419V37.2939H105.544V42.4939H110.662V41.5189H106.6V40.2189Z" fill="url(#paint9_linear_91_40)"/>
<path d="M115.294 39.5688C114.888 39.3251 114.238 39.1626 113.425 39.1626C112.856 39.1626 112.531 39.0813 112.288 39.0001C112.125 38.9188 112.044 38.8376 112.044 38.6751C112.044 38.5126 112.125 38.3501 112.288 38.2688C112.531 38.1876 112.775 38.1063 113.1 38.1063C113.425 38.1063 113.75 38.1876 114.075 38.2688C114.4 38.3501 114.725 38.5126 115.05 38.7563L115.131 38.8376L115.619 37.9438L115.538 37.8626C115.131 37.6188 114.725 37.4563 114.319 37.2938C113.913 37.1313 113.506 37.1313 113.019 37.1313C112.369 37.1313 111.881 37.2938 111.475 37.5376C111.069 37.7813 110.906 38.1876 110.906 38.6751C110.906 39.1626 111.069 39.5688 111.475 39.7313C111.8 39.9751 112.45 40.0563 113.344 40.0563C113.831 40.0563 114.238 40.1376 114.481 40.3001C114.725 40.3813 114.806 40.5438 114.806 40.7876C114.806 41.0313 114.725 41.1938 114.481 41.3563C114.238 41.5188 113.913 41.6001 113.506 41.6001C113.181 41.6001 112.775 41.5188 112.369 41.4376C111.963 41.2751 111.638 41.1126 111.313 40.9501L111.231 40.8688L110.744 41.7626L110.825 41.8438C111.231 42.0876 111.638 42.3313 112.125 42.4126C112.613 42.5751 113.1 42.6563 113.588 42.6563C114.238 42.6563 114.806 42.4938 115.213 42.1688C115.619 41.8438 115.863 41.4376 115.863 40.9501C115.944 40.3001 115.7 39.8938 115.294 39.5688Z" fill="url(#paint10_linear_91_40)"/>
<path d="M117.812 37.2939H116.756V42.4939H117.812V37.2939Z" fill="url(#paint11_linear_91_40)"/>
<path d="M122.281 40.5438H123.5V40.9501C123.338 41.1126 123.175 41.3563 122.85 41.4376C122.525 41.6001 122.119 41.6813 121.713 41.6813C121.063 41.6813 120.575 41.5188 120.169 41.1938C119.762 40.8688 119.6 40.4626 119.6 39.8938C119.6 39.4063 119.762 39.0001 120.169 38.5938C120.575 38.2688 121.144 38.1063 121.713 38.1063C122.119 38.1063 122.525 38.1876 122.85 38.3501C123.175 38.5126 123.419 38.6751 123.662 38.9188L123.744 39.0001L124.556 38.4313L124.475 38.3501C124.15 37.9438 123.825 37.6188 123.338 37.4563C122.85 37.2938 122.362 37.1313 121.794 37.1313C120.9 37.1313 120.088 37.3751 119.519 37.8626C118.95 38.3501 118.625 39.0813 118.625 39.8126C118.625 40.6251 118.95 41.2751 119.519 41.7626C120.088 42.2501 120.9 42.4938 121.794 42.4938C122.444 42.4938 122.931 42.4126 123.419 42.1688C123.906 41.9251 124.313 41.6001 124.556 41.1938V39.5688H122.281V40.5438Z" fill="url(#paint12_linear_91_40)"/>
<path d="M129.025 37.2939V40.5439L126.1 37.3752L126.019 37.2939H125.45V42.4939H126.506V39.2439L129.431 42.4939H130V37.2939H129.025Z" fill="url(#paint13_linear_91_40)"/>
<path d="M129.919 35.1811V27.9498L123.5 9.18107H120.575L114.238 27.9498H109.931V11.2123H115.7V9.18107H101.806V11.2123H107.494V27.8686H99.6937V9.18107H97.2562V27.9498H88.5625L95.225 9.18107H92.625L89.4562 18.4436C88.6437 20.8811 87.8313 23.2373 87.3438 25.4311H87.2625C86.775 23.2373 86.0438 20.9623 85.2313 18.4436L82.3063 9.18107H79.7062L85.8 27.9498H54.6813V24.3748C57.0375 16.0873 55.6562 10.8873 47.5312 11.4561C42.7375 -3.16893 19.825 -4.30643 16.4125 13.0811C11.7 12.4311 9.66875 15.1123 9.66875 20.2311C2.7625 22.3436 0.40625 26.8936 0 32.4998C0.40625 38.1061 2.7625 42.6561 9.66875 44.7686C9.66875 49.8873 11.7 52.5686 16.4125 51.9186C19.825 69.3061 42.7375 68.0873 47.5312 53.5436C55.6562 54.1123 57.0375 48.9936 54.6813 40.6248V35.1811H129.919ZM121.062 14.7061C121.387 13.5686 121.712 12.4311 122.037 11.2936H122.119C122.363 12.3498 122.688 13.4873 123.094 14.7061L124.963 20.0686H119.356L121.062 14.7061ZM118.706 22.0186H125.369L127.4 27.9498H116.838L118.706 22.0186ZM45.5812 29.2498C43.225 30.9561 40.625 30.7123 40.5438 30.0623C40.4625 29.3311 45.5812 24.5373 45.5812 24.5373C48.1 24.1311 47.9375 27.4623 45.5812 29.2498ZM37.2938 6.49982C46.475 11.6186 45.5812 22.1811 35.9937 28.1123C34.6937 29.0061 32.9875 26.3248 34.6938 25.4311C41.6813 22.7498 43.7938 15.7623 35.9937 8.93732C35.5062 7.31232 36.075 6.66232 37.2938 6.49982ZM31.1187 4.71232C32.0125 5.60607 31.3625 7.39357 31.4438 8.69357C31.525 9.99357 29.9813 12.1873 26.975 11.6998C23.9688 11.2936 24.1313 12.5936 24.2937 13.7311C24.4562 14.8686 27.1375 14.8686 28.1125 16.7373C29.0875 18.6061 33.6375 20.0686 31.0375 15.9248C28.4375 11.8623 37.5375 10.0748 36.8875 16.6561C36.2375 23.2373 32.175 19.9061 31.4438 19.6623C30.7125 19.4186 29.8188 20.5561 29.8188 20.5561C28.275 20.0686 27.7062 21.2061 27.7062 21.2061C16.9812 19.2561 21.125 4.30607 31.1187 4.71232ZM27.1375 29.5748C23.6438 26.7311 27.7875 25.1061 27.7875 25.1061C29.1688 25.9186 28.1938 30.4686 27.1375 29.5748ZM27.7062 39.8936C27.7062 39.8936 23.5625 38.2686 27.0562 35.4248C28.1937 34.5311 29.1687 39.0811 27.7062 39.8936ZM17.3875 16.8998C18.7687 16.9811 26.2437 26.1623 20.6375 27.1373C15.0312 28.1123 14.625 18.3623 14.625 18.3623C15.1938 17.0623 16.0063 16.8186 17.3875 16.8998ZM20.0688 32.6623C20.0688 33.5561 19.3375 34.2873 18.4438 34.2873C17.55 34.2873 16.8188 33.5561 16.8188 32.6623C16.8188 32.5811 16.8188 32.4998 16.8188 32.4998C16.8188 32.4186 16.8188 32.3373 16.8188 32.3373C16.8188 31.4436 17.55 30.7123 18.4438 30.7123C19.3375 30.7123 20.0688 31.4436 20.0688 32.3373C20.0688 32.4186 20.0688 32.4998 20.0688 32.4998C20.0688 32.5811 20.0688 32.6623 20.0688 32.6623ZM11.2937 40.1373C11.2937 40.1373 4.55 37.8623 4.95625 32.4998C4.55 27.2186 11.2937 24.8623 11.2937 24.8623C12.35 24.6998 13 25.9186 14.0562 27.1373C15.1125 28.3561 15.275 29.5748 14.0562 30.5498C12.8375 31.6061 13 32.4998 13 32.4998C13 32.4998 12.8375 33.3936 14.0562 34.4498C15.275 35.4248 15.1125 36.6436 14.0562 37.8623C13 39.0811 12.35 40.2186 11.2937 40.1373ZM17.3875 48.0998C16.0063 48.1811 15.1937 47.9373 14.5437 46.6373C14.5437 46.6373 14.95 36.8873 20.5562 37.8623C26.2437 38.8373 18.7687 48.0186 17.3875 48.0998ZM28.1938 48.2623C27.2188 50.1311 24.5375 50.1311 24.375 51.2686C24.2125 52.4061 24.05 53.7061 27.0562 53.2998C30.0625 52.8936 31.6062 55.0873 31.525 56.3061C31.4437 57.6061 32.0125 59.3936 31.2 60.2873C21.2063 60.6936 17.0625 45.7436 27.95 43.7936C27.95 43.7936 28.5187 44.9311 30.0625 44.4436C30.0625 44.4436 30.9562 45.6623 31.6875 45.3373C32.4188 45.0936 36.4813 41.7623 37.1313 48.3436C37.7812 54.9248 28.6812 53.1373 31.2812 49.0748C33.7188 44.9311 29.1688 46.3936 28.1938 48.2623ZM37.2938 58.4998C36.075 58.3373 35.5062 57.6873 35.9937 56.0623C43.7938 49.2373 41.6812 42.3311 34.6125 39.5686C32.9875 38.5936 34.6938 35.9936 35.9125 36.8873C45.5812 42.8186 46.475 53.4623 37.2938 58.4998ZM45.5812 40.5436C45.5812 40.5436 40.3813 35.7498 40.5438 35.0186C40.625 34.2873 43.3062 34.0436 45.5812 35.8311C47.9375 37.5373 48.1 40.8686 45.5812 40.5436ZM49.2375 49.3998C47.2875 49.5623 48.1 46.2311 46.5562 43.5498C48.5062 43.4686 50.1313 42.8998 50.9438 41.4373C53.0563 45.7436 52.4875 48.4248 49.2375 49.3998ZM50.8625 23.6436C50.05 22.1811 48.425 21.5311 46.475 21.5311C48.1 18.8498 47.2875 15.5186 49.1562 15.6811C52.4875 16.5748 53.0562 19.2561 50.8625 23.6436Z" fill="url(#paint14_linear_91_40)"/>
<path d="M78.4062 32.9062C78.1625 33.3124 77.7562 33.7187 77.2687 33.9624C76.7812 34.2062 76.2937 34.2874 75.725 34.2874C74.8312 34.2874 74.1 34.0437 73.5312 33.5562C72.9625 33.0687 72.7188 32.4187 72.7188 31.6874C72.7188 30.9562 72.9625 30.3062 73.5312 29.8187C74.1 29.3312 74.8312 29.0874 75.725 29.0874C76.2937 29.0874 76.7812 29.1687 77.1875 29.4124C77.5938 29.6562 78 29.8999 78.2438 30.3062L77.5938 30.7124C77.35 30.4687 77.1062 30.2249 76.7812 30.0624C76.4562 29.8999 76.05 29.8187 75.6437 29.8187C74.9937 29.8187 74.5062 29.9812 74.1 30.3874C73.6937 30.7124 73.45 31.1999 73.45 31.7687C73.45 32.3374 73.6937 32.7437 74.1 33.1499C74.5062 33.4749 75.075 33.7187 75.6437 33.7187C76.05 33.7187 76.4562 33.6374 76.7812 33.4749C77.1062 33.3124 77.4312 33.0687 77.675 32.6624L78.4062 32.9062Z" fill="white"/>
<path d="M84.6625 34.2874C83.7687 34.2874 83.0375 34.0437 82.4687 33.5562C81.9 33.0687 81.575 32.4187 81.575 31.6874C81.575 30.9562 81.9 30.3062 82.4687 29.8187C83.0375 29.3312 83.7687 29.0874 84.6625 29.0874C85.5562 29.0874 86.2875 29.3312 86.8563 29.8187C87.425 30.3062 87.75 30.9562 87.75 31.6874C87.75 32.4187 87.425 33.0687 86.8563 33.5562C86.2875 34.0437 85.5562 34.2874 84.6625 34.2874ZM84.6625 33.5562C85.3125 33.5562 85.8812 33.3937 86.2875 32.9874C86.6937 32.6624 86.9375 32.1749 86.9375 31.6062C86.9375 31.0374 86.6937 30.6312 86.2875 30.2249C85.8812 29.8999 85.3125 29.6562 84.6625 29.6562C84.0125 29.6562 83.4437 29.8187 83.0375 30.2249C82.6312 30.5499 82.3875 31.0374 82.3875 31.6062C82.3875 32.1749 82.6312 32.5812 83.0375 32.9874C83.525 33.3937 84.0125 33.5562 84.6625 33.5562Z" fill="white"/>
<path d="M91.4062 34.1247V29.1685H92.0563L94.0875 32.0935L96.1188 29.1685H96.7687V34.1247H95.9562V30.5497L94.0062 33.3122L92.1375 30.5497V34.1247H91.4062Z" fill="white"/>
<path d="M101.644 31.931V34.1247H100.831V29.1685H104.488C104.975 29.1685 105.381 29.2497 105.706 29.4935C106.031 29.7372 106.113 30.0622 106.113 30.5497C106.113 30.956 105.95 31.281 105.706 31.606C105.463 31.8497 105.056 32.0122 104.569 32.0122H101.644V31.931ZM101.644 31.1997H104.488C104.731 31.1997 104.975 31.1185 105.056 31.0372C105.219 30.956 105.3 30.7935 105.3 30.5497C105.3 30.306 105.219 30.1435 105.056 30.0622C104.894 29.981 104.731 29.8997 104.488 29.8997H101.644V31.1997Z" fill="white"/>
<path d="M107.981 34.1247L110.5 29.1685H110.988L113.506 34.1247H112.694L112.044 32.8247H109.444L108.794 34.1247H107.981ZM109.769 32.1747H111.719L110.744 30.306L109.769 32.1747Z" fill="white"/>
<path d="M116.675 34.1247V29.1685H117.081L120.25 32.6622V29.1685H120.981V34.1247H120.575L117.406 30.631V34.1247H116.675Z" fill="white"/>
<path d="M126.506 34.1247V31.606L124.231 29.1685H125.206L126.831 30.956L128.456 29.1685H129.512L127.238 31.606V34.1247H126.506Z" fill="white"/>
</g>
<defs>
<linearGradient id="paint0_linear_91_40" x1="57.6311" y1="31.1991" x2="57.6311" y2="56.1144" gradientUnits="userSpaceOnUse">
<stop stop-color="#9A7014"/>
<stop offset="0.262" stop-color="#CFA751"/>
<stop offset="0.5319" stop-color="#723F00"/>
<stop offset="1" stop-color="#E7B94D"/>
</linearGradient>
<linearGradient id="paint1_linear_91_40" x1="61.5835" y1="31.1991" x2="61.5835" y2="56.1144" gradientUnits="userSpaceOnUse">
<stop stop-color="#9A7014"/>
<stop offset="0.262" stop-color="#CFA751"/>
<stop offset="0.5319" stop-color="#723F00"/>
<stop offset="1" stop-color="#E7B94D"/>
</linearGradient>
<linearGradient id="paint2_linear_91_40" x1="66.6787" y1="31.1991" x2="66.6787" y2="56.1144" gradientUnits="userSpaceOnUse">
<stop stop-color="#9A7014"/>
<stop offset="0.262" stop-color="#CFA751"/>
<stop offset="0.5319" stop-color="#723F00"/>
<stop offset="1" stop-color="#E7B94D"/>
</linearGradient>
<linearGradient id="paint3_linear_91_40" x1="72.0279" y1="31.1991" x2="72.0279" y2="56.1144" gradientUnits="userSpaceOnUse">
<stop stop-color="#9A7014"/>
<stop offset="0.262" stop-color="#CFA751"/>
<stop offset="0.5319" stop-color="#723F00"/>
<stop offset="1" stop-color="#E7B94D"/>
</linearGradient>
<linearGradient id="paint4_linear_91_40" x1="77.8866" y1="31.1991" x2="77.8866" y2="56.1144" gradientUnits="userSpaceOnUse">
<stop stop-color="#9A7014"/>
<stop offset="0.262" stop-color="#CFA751"/>
<stop offset="0.5319" stop-color="#723F00"/>
<stop offset="1" stop-color="#E7B94D"/>
</linearGradient>
<linearGradient id="paint5_linear_91_40" x1="81.7624" y1="31.1991" x2="81.7624" y2="56.1144" gradientUnits="userSpaceOnUse">
<stop stop-color="#9A7014"/>
<stop offset="0.262" stop-color="#CFA751"/>
<stop offset="0.5319" stop-color="#723F00"/>
<stop offset="1" stop-color="#E7B94D"/>
</linearGradient>
<linearGradient id="paint6_linear_91_40" x1="86.1534" y1="31.1988" x2="86.1534" y2="56.1142" gradientUnits="userSpaceOnUse">
<stop stop-color="#9A7014"/>
<stop offset="0.262" stop-color="#CFA751"/>
<stop offset="0.5319" stop-color="#723F00"/>
<stop offset="1" stop-color="#E7B94D"/>
</linearGradient>
<linearGradient id="paint7_linear_91_40" x1="92.7682" y1="31.1991" x2="92.7682" y2="56.1144" gradientUnits="userSpaceOnUse">
<stop stop-color="#9A7014"/>
<stop offset="0.262" stop-color="#CFA751"/>
<stop offset="0.5319" stop-color="#723F00"/>
<stop offset="1" stop-color="#E7B94D"/>
</linearGradient>
<linearGradient id="paint8_linear_91_40" x1="102.328" y1="31.1991" x2="102.328" y2="56.1144" gradientUnits="userSpaceOnUse">
<stop stop-color="#9A7014"/>
<stop offset="0.262" stop-color="#CFA751"/>
<stop offset="0.5319" stop-color="#723F00"/>
<stop offset="1" stop-color="#E7B94D"/>
</linearGradient>
<linearGradient id="paint9_linear_91_40" x1="108.104" y1="31.1991" x2="108.104" y2="56.1144" gradientUnits="userSpaceOnUse">
<stop stop-color="#9A7014"/>
<stop offset="0.262" stop-color="#CFA751"/>
<stop offset="0.5319" stop-color="#723F00"/>
<stop offset="1" stop-color="#E7B94D"/>
</linearGradient>
<linearGradient id="paint10_linear_91_40" x1="113.333" y1="31.199" x2="113.333" y2="56.1144" gradientUnits="userSpaceOnUse">
<stop stop-color="#9A7014"/>
<stop offset="0.262" stop-color="#CFA751"/>
<stop offset="0.5319" stop-color="#723F00"/>
<stop offset="1" stop-color="#E7B94D"/>
</linearGradient>
<linearGradient id="paint11_linear_91_40" x1="117.284" y1="31.1991" x2="117.284" y2="56.1144" gradientUnits="userSpaceOnUse">
<stop stop-color="#9A7014"/>
<stop offset="0.262" stop-color="#CFA751"/>
<stop offset="0.5319" stop-color="#723F00"/>
<stop offset="1" stop-color="#E7B94D"/>
</linearGradient>
<linearGradient id="paint12_linear_91_40" x1="121.557" y1="31.199" x2="121.557" y2="56.1143" gradientUnits="userSpaceOnUse">
<stop stop-color="#9A7014"/>
<stop offset="0.262" stop-color="#CFA751"/>
<stop offset="0.5319" stop-color="#723F00"/>
<stop offset="1" stop-color="#E7B94D"/>
</linearGradient>
<linearGradient id="paint13_linear_91_40" x1="127.729" y1="31.1991" x2="127.729" y2="56.1144" gradientUnits="userSpaceOnUse">
<stop stop-color="#9A7014"/>
<stop offset="0.262" stop-color="#CFA751"/>
<stop offset="0.5319" stop-color="#723F00"/>
<stop offset="1" stop-color="#E7B94D"/>
</linearGradient>
<linearGradient id="paint14_linear_91_40" x1="65.9652" y1="53.6299" x2="63.3106" y2="-8.30921" gradientUnits="userSpaceOnUse">
<stop stop-color="#9A7014"/>
<stop offset="0.262" stop-color="#CFA751"/>
<stop offset="0.5319" stop-color="#723F00"/>
<stop offset="1" stop-color="#E7B94D"/>
</linearGradient>
<clipPath id="clip0_91_40">
<rect width="130" height="65" fill="white"/>
</clipPath>
</defs>
</svg>
