<svg xmlns="http://www.w3.org/2000/svg" xmlns:xlink="http://www.w3.org/1999/xlink" display="none">
    <symbol id="phone" viewBox="0 0 23 23">
        <path d="M21.5626 11.4317C21.4673 11.4317 21.3759 11.3939 21.3085 11.3265C21.2411 11.2591 21.2032 11.1677 21.2032 11.0723C21.2032 5.95484 17.1603 1.79688 12.1793 1.79688C12.084 1.79688 11.9926 1.75901 11.9252 1.69162C11.8578 1.62422 11.8199 1.53281 11.8199 1.4375C11.8199 1.34219 11.8578 1.25078 11.9252 1.18338C11.9926 1.11599 12.084 1.07813 12.1793 1.07812C17.552 1.07812 21.922 5.56312 21.922 11.0795C21.9201 11.1736 21.8814 11.2632 21.8142 11.329C21.747 11.3949 21.6567 11.4317 21.5626 11.4317Z" fill="#E2E2E2"/>
        <path d="M17.6454 11.4318C17.5501 11.4318 17.4586 11.3939 17.3912 11.3265C17.3239 11.2591 17.286 11.1677 17.286 11.0724C17.3033 9.69847 16.7757 8.37359 15.8187 7.38761C14.8617 6.40163 13.5531 5.83482 12.1793 5.81117C12.084 5.81117 11.9926 5.77331 11.9252 5.70591C11.8578 5.63852 11.8199 5.54711 11.8199 5.4518C11.8199 5.35648 11.8578 5.26508 11.9252 5.19768C11.9926 5.13028 12.084 5.09242 12.1793 5.09242C13.7428 5.1142 15.2338 5.75528 16.3252 6.87501C17.4167 7.99474 18.0194 9.50168 18.0011 11.0652C18.0021 11.1127 17.9936 11.1599 17.9762 11.2041C17.9588 11.2483 17.9328 11.2886 17.8997 11.3227C17.8666 11.3568 17.8271 11.384 17.7835 11.4027C17.7398 11.4215 17.6929 11.4313 17.6454 11.4318ZM19.7657 18.9859C19.3069 19.9041 18.6561 20.713 17.8574 21.3577C17.5723 21.5837 17.2431 21.7474 16.8909 21.8384C16.5387 21.9293 16.1714 21.9456 15.8126 21.886C12.553 21.3326 9.3438 19.9023 6.14177 16.7541C3.08349 13.473 1.64958 10.1237 1.11052 6.77789C1.05086 6.41034 1.0656 6.03455 1.15388 5.6728C1.24216 5.31105 1.40217 4.97071 1.62443 4.67195C2.24599 3.84997 3.0411 3.1751 3.95318 2.69539C4.04078 2.60341 4.14616 2.53017 4.26291 2.48014C4.37967 2.4301 4.50537 2.4043 4.6324 2.4043C4.75942 2.4043 4.88512 2.4301 5.00188 2.48014C5.11863 2.53017 5.22401 2.60341 5.31161 2.69539L8.47771 5.98367C8.67045 6.19055 8.77762 6.46279 8.77762 6.74555C8.77762 7.0283 8.67045 7.30054 8.47771 7.50742L6.23521 9.94039C7.18755 12.0284 10.7058 15.6509 12.7255 16.6284L15.0938 14.3176C15.1909 14.2202 15.3063 14.143 15.4334 14.0903C15.5604 14.0376 15.6966 14.0104 15.8341 14.0104C15.9716 14.0104 16.1078 14.0376 16.2349 14.0903C16.3619 14.143 16.4773 14.2202 16.5744 14.3176L19.7729 17.552C19.867 17.6463 19.9416 17.7584 19.9922 17.8817C20.0429 18.005 20.0686 18.1371 20.068 18.2704C20.0673 18.4037 20.0402 18.5356 19.9883 18.6584C19.9365 18.7811 19.8608 18.8925 19.7657 18.9859Z" fill="#E2E2E2"/>
    </symbol>
    <symbol id="arrow" viewBox="0 0 20 20" >
        <path fill-rule="evenodd" clip-rule="evenodd" d="M16.125 6.25L17 7.12502L10.375 13.75L3.75 7.12502L4.62502 6.25L10.375 12L16.125 6.25Z" />
    </symbol>
     <symbol id="insta" viewBox="0 0 24 25" >
        <path d="M17.34 6.13578C17.1027 6.13578 16.8707 6.20616 16.6733 6.33802C16.476 6.46988 16.3222 6.65729 16.2313 6.87656C16.1405 7.09583 16.1168 7.33711 16.1631 7.56989C16.2094 7.80267 16.3236 8.01649 16.4915 8.18431C16.6593 8.35213 16.8731 8.46642 17.1059 8.51272C17.3387 8.55903 17.5799 8.53526 17.7992 8.44444C18.0185 8.35361 18.2059 8.1998 18.3378 8.00247C18.4696 7.80513 18.54 7.57312 18.54 7.33578C18.54 7.01752 18.4136 6.7123 18.1885 6.48725C17.9635 6.26221 17.6583 6.13578 17.34 6.13578ZM21.94 8.55578C21.9206 7.72608 21.7652 6.90518 21.48 6.12578C21.2257 5.45891 20.83 4.85506 20.32 4.35578C19.8248 3.84321 19.2196 3.44996 18.55 3.20578C17.7727 2.91194 16.9508 2.75299 16.12 2.73578C15.06 2.67578 14.72 2.67578 12 2.67578C9.28 2.67578 8.94 2.67578 7.88 2.73578C7.04915 2.75299 6.22734 2.91194 5.45 3.20578C4.78168 3.45243 4.17693 3.84534 3.68 4.35578C3.16743 4.85096 2.77418 5.45622 2.53 6.12578C2.23616 6.90312 2.07721 7.72493 2.06 8.55578C2 9.61578 2 9.95578 2 12.6758C2 15.3958 2 15.7358 2.06 16.7958C2.07721 17.6266 2.23616 18.4484 2.53 19.2258C2.77418 19.8953 3.16743 20.5006 3.68 20.9958C4.17693 21.5062 4.78168 21.8991 5.45 22.1458C6.22734 22.4396 7.04915 22.5986 7.88 22.6158C8.94 22.6758 9.28 22.6758 12 22.6758C14.72 22.6758 15.06 22.6758 16.12 22.6158C16.9508 22.5986 17.7727 22.4396 18.55 22.1458C19.2196 21.9016 19.8248 21.5084 20.32 20.9958C20.8322 20.4984 21.2283 19.894 21.48 19.2258C21.7652 18.4464 21.9206 17.6255 21.94 16.7958C21.94 15.7358 22 15.3958 22 12.6758C22 9.95578 22 9.61578 21.94 8.55578ZM20.14 16.6758C20.1327 17.3106 20.0178 17.9395 19.8 18.5358C19.6403 18.971 19.3839 19.3642 19.05 19.6858C18.7256 20.0163 18.3332 20.2722 17.9 20.4358C17.3037 20.6535 16.6748 20.7685 16.04 20.7758C15.04 20.8258 14.67 20.8358 12.04 20.8358C9.41 20.8358 9.04 20.8358 8.04 20.7758C7.38089 20.7881 6.72459 20.6866 6.1 20.4758C5.68578 20.3039 5.31136 20.0486 5 19.7258C4.66809 19.4045 4.41484 19.011 4.26 18.5758C4.01586 17.9709 3.88044 17.3277 3.86 16.6758C3.86 15.6758 3.8 15.3058 3.8 12.6758C3.8 10.0458 3.8 9.67578 3.86 8.67578C3.86448 8.02684 3.98295 7.38373 4.21 6.77578C4.38605 6.35369 4.65627 5.97744 5 5.67578C5.30381 5.33195 5.67929 5.05888 6.1 4.87578C6.70955 4.65582 7.352 4.54086 8 4.53578C9 4.53578 9.37 4.47578 12 4.47578C14.63 4.47578 15 4.47578 16 4.53578C16.6348 4.54306 17.2637 4.65803 17.86 4.87578C18.3144 5.04443 18.7223 5.31863 19.05 5.67578C19.3777 5.98296 19.6338 6.35851 19.8 6.77578C20.0223 7.38472 20.1373 8.02756 20.14 8.67578C20.19 9.67578 20.2 10.0458 20.2 12.6758C20.2 15.3058 20.19 15.6758 20.14 16.6758ZM12 7.54578C10.9858 7.54776 9.99496 7.85031 9.15265 8.4152C8.31035 8.98009 7.65438 9.78198 7.26763 10.7195C6.88089 11.6571 6.78072 12.6882 6.97979 13.6827C7.17886 14.6772 7.66824 15.5903 8.38608 16.3068C9.10392 17.0232 10.018 17.5108 11.0129 17.7079C12.0077 17.9051 13.0387 17.8029 13.9755 17.4143C14.9123 17.0257 15.7129 16.3682 16.2761 15.5248C16.8394 14.6814 17.14 13.69 17.14 12.6758C17.1413 12.0009 17.0092 11.3324 16.7512 10.7087C16.4933 10.0851 16.1146 9.51859 15.6369 9.04183C15.1592 8.56507 14.5919 8.18746 13.9678 7.93071C13.3436 7.67396 12.6749 7.54314 12 7.54578ZM12 16.0058C11.3414 16.0058 10.6976 15.8105 10.15 15.4446C9.60234 15.0787 9.17552 14.5586 8.92348 13.9501C8.67144 13.3416 8.6055 12.6721 8.73398 12.0261C8.86247 11.3802 9.17963 10.7868 9.64533 10.3211C10.111 9.85541 10.7044 9.53825 11.3503 9.40977C11.9963 9.28128 12.6659 9.34722 13.2743 9.59926C13.8828 9.8513 14.4029 10.2781 14.7688 10.8257C15.1347 11.3733 15.33 12.0172 15.33 12.6758C15.33 13.1131 15.2439 13.5461 15.0765 13.9501C14.9092 14.3541 14.6639 14.7212 14.3547 15.0304C14.0454 15.3397 13.6784 15.585 13.2743 15.7523C12.8703 15.9196 12.4373 16.0058 12 16.0058Z" fill="#3A3A3A"/>
    </symbol>
     <symbol id="mail" viewBox="0 0 24 25" >
    <path d="M3.50006 20.6759C3.10006 20.6759 2 20.6758 2 20.6758C2 20.6758 2.00006 19.5759 2.00006 19.1759V6.17587C2.00006 5.77587 2.00002 4.67578 2.00002 4.67578C2.00002 4.67578 3.10006 4.67586 3.50006 4.67586H20.5001C20.9001 4.67586 22.0001 4.67581 22.0001 4.67581C22.0001 4.67581 22.0001 5.77587 22.0001 6.17587V19.1759C22.0001 19.5759 22 20.6758 22 20.6758C22 20.6758 20.9001 20.6759 20.5001 20.6759H3.50006ZM12.0001 13.1259L3.50006 7.55086V19.1759H20.5001V7.55086L12.0001 13.1259ZM12.0001 11.6259L20.4001 6.17587H3.62506L12.0001 11.6259ZM3.50006 7.55086V6.17587V19.1759V7.55086Z" fill="#3A3A3A"/>

    </symbol>
     <symbol id="vk" viewBox="0 0 24 25" >
        <path d="M23.456 6.45978C23.186 7.30878 22.822 8.04778 22.366 8.71878L22.385 8.68878C21.937 9.43545 21.402 10.2981 20.78 11.2768C20.2467 12.0494 19.9643 12.4494 19.933 12.4768C19.795 12.6498 19.699 12.8618 19.666 13.0948L19.665 13.1018C19.692 13.3138 19.79 13.4988 19.933 13.6368L20.333 14.0828C22.473 16.2821 23.6767 17.7981 23.944 18.6308C23.979 18.7228 23.999 18.8288 23.999 18.9398C23.999 19.1338 23.937 19.3128 23.832 19.4598L23.834 19.4568C23.658 19.6378 23.412 19.7498 23.14 19.7498C23.11 19.7498 23.079 19.7488 23.05 19.7458H23.054H20.423C20.422 19.7458 20.42 19.7458 20.418 19.7458C20.081 19.7458 19.771 19.6278 19.528 19.4318L19.531 19.4338C19.177 19.1428 18.862 18.8278 18.58 18.4858L18.571 18.4738C18.1103 17.9531 17.7017 17.5148 17.345 17.1588C16.157 16.0294 15.2803 15.4648 14.715 15.4648C14.694 15.4628 14.67 15.4618 14.645 15.4618C14.48 15.4618 14.326 15.5128 14.199 15.5998L14.202 15.5978C14.098 15.7278 14.035 15.8958 14.035 16.0768C14.035 16.1128 14.037 16.1468 14.042 16.1818V16.1778C14.015 16.4918 13.999 16.8568 13.999 17.2258C13.999 17.3448 14.001 17.4628 14.004 17.5808V17.5638V18.7228C14.014 18.7698 14.02 18.8238 14.02 18.8788C14.02 19.1208 13.91 19.3368 13.738 19.4798L13.737 19.4808C13.35 19.6578 12.898 19.7618 12.421 19.7618C12.319 19.7618 12.219 19.7568 12.12 19.7478L12.133 19.7488C10.559 19.7188 9.09899 19.2578 7.85799 18.4808L7.89299 18.5008C6.38199 17.5828 5.12999 16.3878 4.17599 14.9758L4.14899 14.9338C3.24299 13.7318 2.39799 12.3738 1.67799 10.9418L1.60799 10.7878C1.18699 9.98578 0.750991 8.99978 0.374991 7.98578L0.314991 7.80078C0.161991 7.34478 0.0509907 6.81478 0.00499072 6.26578L0.00299072 6.24078C0.00299072 5.73545 0.300324 5.48278 0.894991 5.48278H3.52499C3.54899 5.48078 3.57699 5.47978 3.60599 5.47978C3.85399 5.47978 4.08299 5.56478 4.26399 5.70778L4.26199 5.70578C4.46199 5.92478 4.60999 6.19378 4.68299 6.49378L4.68599 6.50578C5.16999 7.87278 5.68299 9.02078 6.27299 10.1208L6.20599 9.98378C6.68799 10.9538 7.22099 11.7888 7.82899 12.5598L7.80599 12.5288C8.33932 13.1834 8.75532 13.5108 9.05399 13.5108C9.06299 13.5118 9.07399 13.5118 9.08599 13.5118C9.23399 13.5118 9.36299 13.4318 9.43299 13.3118L9.43399 13.3098C9.50799 13.1198 9.55099 12.8988 9.55099 12.6688C9.55099 12.6198 9.54899 12.5708 9.54499 12.5228V12.5288V8.64978C9.52399 8.19278 9.41199 7.76578 9.22499 7.38278L9.23299 7.40178C9.10899 7.13778 8.95999 6.90978 8.78299 6.70678L8.78599 6.71078C8.62199 6.54678 8.50999 6.33178 8.47499 6.09178L8.47399 6.08578C8.47399 5.91578 8.55199 5.76278 8.67399 5.66278L8.67499 5.66178C8.79599 5.55078 8.95799 5.48378 9.13499 5.48378H9.14299H13.289C13.311 5.48078 13.336 5.47978 13.362 5.47978C13.557 5.47978 13.732 5.56778 13.848 5.70578L13.849 5.70678C13.952 5.89478 14.013 6.11978 14.013 6.35778C14.013 6.39578 14.011 6.43278 14.008 6.46978V6.46478V11.6378C14.006 11.6618 14.005 11.6898 14.005 11.7178C14.005 11.9018 14.056 12.0748 14.144 12.2218L14.142 12.2178C14.215 12.3258 14.337 12.3958 14.475 12.3958H14.476C14.652 12.3838 14.812 12.3258 14.947 12.2338L14.944 12.2358C15.216 12.0488 15.45 11.8358 15.653 11.5948L15.657 11.5898C16.264 10.9038 16.824 10.1458 17.312 9.33978L17.351 9.26978C17.695 8.69978 18.067 7.99778 18.404 7.27678L18.466 7.12978L18.912 6.23778C19.067 5.79178 19.483 5.47778 19.972 5.47778C19.991 5.47778 20.01 5.47778 20.029 5.47878H20.026H22.657C23.3677 5.47878 23.6343 5.80578 23.457 6.45978H23.456Z" fill="#3A3A3A"/>
    </symbol>
     <symbol id="arrow1" viewBox="0 0 30 8" >
        <path d="M29.3536 4.35356C29.5488 4.15829 29.5488 3.84171 29.3536 3.64645L26.1716 0.464468C25.9763 0.269206 25.6597 0.269206 25.4645 0.464468C25.2692 0.65973 25.2692 0.976313 25.4645 1.17158L28.2929 4L25.4645 6.82843C25.2692 7.02369 25.2692 7.34027 25.4645 7.53554C25.6597 7.7308 25.9763 7.7308 26.1716 7.53554L29.3536 4.35356ZM-4.37114e-08 4.5L29 4.5L29 3.5L4.37114e-08 3.5L-4.37114e-08 4.5Z" />
    </symbol>
     <symbol id="close" viewBox="0 0 30 30" >
        <path d="M7.78125 23.5312L6.46875 22.2187L13.6875 15L6.46875 7.78125L7.78125 6.46875L15 13.6875L22.2187 6.46875L23.5312 7.78125L16.3125 15L23.5312 22.2187L22.2187 23.5312L15 16.3125L7.78125 23.5312Z" fill="#121212"/>
    </symbol>
     <symbol id="adv1" fill="none" viewBox="0 0 64 64" >
        <path d="M19.34 48.2999C19.34 44.9422 20.6738 41.7221 23.048 39.3479C25.4222 36.9737 28.6424 35.6399 32 35.6399C35.3576 35.6399 38.5778 36.9737 40.952 39.3479C43.3262 41.7221 44.66 44.9422 44.66 48.2999M41.81 39.8999C43.4008 38.6958 45.296 37.9594 47.2824 37.7738C49.2688 37.5881 51.2677 37.9605 53.054 38.849C54.8404 39.7375 56.3433 41.1068 57.3938 42.803C58.4442 44.4991 59.0005 46.4548 59 48.4499M22.19 39.8999C20.5993 38.6958 18.704 37.9594 16.7176 37.7738C14.7312 37.5881 12.7323 37.9605 10.946 38.849C9.15965 39.7375 7.6567 41.1068 6.60624 42.803C5.55579 44.4991 4.99951 46.4548 5 48.4499M38.15 21.6999C38.15 25.0899 35.39 30.9999 32 30.9999C28.61 30.9999 25.85 25.0799 25.85 21.6799C25.914 20.093 26.5894 18.5925 27.7349 17.4923C28.8803 16.3922 30.4068 15.7778 31.995 15.7778C33.5832 15.7778 35.1097 16.3922 36.2551 17.4923C37.4006 18.5925 38.076 20.093 38.14 21.6799L38.15 21.6999ZM53.49 25.7699C53.49 28.6399 51.16 33.7699 48.29 33.7699C45.42 33.7699 43.09 28.5999 43.09 25.7699C43.09 24.3894 43.6384 23.0655 44.6145 22.0894C45.5906 21.1133 46.9145 20.5649 48.295 20.5649C49.6754 20.5649 50.9994 21.1133 51.9755 22.0894C52.9516 23.0655 53.5 24.3894 53.5 25.7699H53.49ZM10.51 25.7699C10.51 28.6399 12.84 33.7699 15.71 33.7699C18.58 33.7699 20.91 28.5999 20.91 25.7699C20.91 24.3894 20.3616 23.0655 19.3855 22.0894C18.4094 21.1133 17.0855 20.5649 15.705 20.5649C14.3245 20.5649 13.0006 21.1133 12.0245 22.0894C11.0484 23.0655 10.5 24.3894 10.5 25.7699H10.51Z" stroke="#FBC062" stroke-width="2" stroke-linecap="round" stroke-linejoin="round"/>
    </symbol>
     <symbol id="adv2" fill="none" viewBox="0 0 64 64" >
        <path d="M55.4699 37.0002C56.1703 33.7036 56.1703 30.2967 55.4699 27.0002H48.2499C47.9307 25.9623 47.5121 24.9576 46.9999 24.0002L52.1099 18.8902C50.2729 16.0655 47.8645 13.6571 45.0399 11.8202L39.9999 17.0002C39.0417 16.4948 38.0371 16.0829 36.9999 15.7702V8.53015C33.7034 7.82979 30.2965 7.82979 26.9999 8.53015V15.7502C25.962 16.0694 24.9574 16.488 23.9999 17.0002L18.8899 11.8902C16.0653 13.7271 13.6569 16.1355 11.8199 18.9602L16.9999 24.0002C16.4946 24.9584 16.0827 25.963 15.7699 27.0002H8.52991C7.82955 30.2967 7.82955 33.7036 8.52991 37.0002H15.7499C16.0691 38.038 16.4877 39.0427 16.9999 40.0002L11.8899 45.1102C12.7895 46.5107 13.8317 47.8143 14.9999 49.0002V49.0002C16.1896 50.1869 17.5 51.246 18.9099 52.1602L23.9999 47.0002C24.9581 47.5055 25.9628 47.9174 26.9999 48.2302V55.4502C30.2965 56.1505 33.7034 56.1505 36.9999 55.4502V48.2502C38.0378 47.9309 39.0424 47.5123 39.9999 47.0002L45.1099 52.1102C46.5105 51.2106 47.8141 50.1683 48.9999 49.0002C50.1866 47.8105 51.2457 46.5 52.1599 45.0902L46.9999 40.0002C47.5052 39.0419 47.9171 38.0373 48.2299 37.0002H55.4699Z" stroke="#FBC062" stroke-width="2" stroke-linecap="round" stroke-linejoin="round"/>
        <path d="M32 26V38" stroke="#FBC062" stroke-width="2" stroke-linecap="round" stroke-linejoin="round"/>
        <path d="M26 32H38" stroke="#FBC062" stroke-width="2" stroke-linecap="round" stroke-linejoin="round"/>
    </symbol>
    <symbol id="adv3" fill="none" viewBox="0 0 64 64" >
        <path d="M32 42.5C41.3888 42.5 49 34.8888 49 25.5C49 16.1112 41.3888 8.5 32 8.5C22.6112 8.5 15 16.1112 15 25.5C15 34.8888 22.6112 42.5 32 42.5Z" stroke="#FBC062" stroke-width="2" stroke-miterlimit="10"/>
        <path d="M32 37C28.95 37 26.0249 35.7884 23.8683 33.6317C21.7116 31.4751 20.5 28.55 20.5 25.5" stroke="#FBC062" stroke-width="2" stroke-linecap="round" stroke-linejoin="round"/>
        <path d="M20 38V57L32 50L44 57V38" stroke="#FBC062" stroke-width="2" stroke-linecap="round" stroke-linejoin="round"/>
    </symbol>
    <symbol id="" viewBox="0 0 0 0" >
    
    </symbol>
    <symbol id="" viewBox="0 0 0 0" >
    
    </symbol>
</svg>