<svg xmlns="http://www.w3.org/2000/svg" xmlns:xlink="http://www.w3.org/1999/xlink" display="none">
    <symbol id="phone" viewBox="0 0 23 23">
        <path d="M21.5626 11.4317C21.4673 11.4317 21.3759 11.3939 21.3085 11.3265C21.2411 11.2591 21.2032 11.1677 21.2032 11.0723C21.2032 5.95484 17.1603 1.79688 12.1793 1.79688C12.084 1.79688 11.9926 1.75901 11.9252 1.69162C11.8578 1.62422 11.8199 1.53281 11.8199 1.4375C11.8199 1.34219 11.8578 1.25078 11.9252 1.18338C11.9926 1.11599 12.084 1.07813 12.1793 1.07812C17.552 1.07812 21.922 5.56312 21.922 11.0795C21.9201 11.1736 21.8814 11.2632 21.8142 11.329C21.747 11.3949 21.6567 11.4317 21.5626 11.4317Z" fill="#E2E2E2"/>
        <path d="M17.6454 11.4318C17.5501 11.4318 17.4586 11.3939 17.3912 11.3265C17.3239 11.2591 17.286 11.1677 17.286 11.0724C17.3033 9.69847 16.7757 8.37359 15.8187 7.38761C14.8617 6.40163 13.5531 5.83482 12.1793 5.81117C12.084 5.81117 11.9926 5.77331 11.9252 5.70591C11.8578 5.63852 11.8199 5.54711 11.8199 5.4518C11.8199 5.35648 11.8578 5.26508 11.9252 5.19768C11.9926 5.13028 12.084 5.09242 12.1793 5.09242C13.7428 5.1142 15.2338 5.75528 16.3252 6.87501C17.4167 7.99474 18.0194 9.50168 18.0011 11.0652C18.0021 11.1127 17.9936 11.1599 17.9762 11.2041C17.9588 11.2483 17.9328 11.2886 17.8997 11.3227C17.8666 11.3568 17.8271 11.384 17.7835 11.4027C17.7398 11.4215 17.6929 11.4313 17.6454 11.4318ZM19.7657 18.9859C19.3069 19.9041 18.6561 20.713 17.8574 21.3577C17.5723 21.5837 17.2431 21.7474 16.8909 21.8384C16.5387 21.9293 16.1714 21.9456 15.8126 21.886C12.553 21.3326 9.3438 19.9023 6.14177 16.7541C3.08349 13.473 1.64958 10.1237 1.11052 6.77789C1.05086 6.41034 1.0656 6.03455 1.15388 5.6728C1.24216 5.31105 1.40217 4.97071 1.62443 4.67195C2.24599 3.84997 3.0411 3.1751 3.95318 2.69539C4.04078 2.60341 4.14616 2.53017 4.26291 2.48014C4.37967 2.4301 4.50537 2.4043 4.6324 2.4043C4.75942 2.4043 4.88512 2.4301 5.00188 2.48014C5.11863 2.53017 5.22401 2.60341 5.31161 2.69539L8.47771 5.98367C8.67045 6.19055 8.77762 6.46279 8.77762 6.74555C8.77762 7.0283 8.67045 7.30054 8.47771 7.50742L6.23521 9.94039C7.18755 12.0284 10.7058 15.6509 12.7255 16.6284L15.0938 14.3176C15.1909 14.2202 15.3063 14.143 15.4334 14.0903C15.5604 14.0376 15.6966 14.0104 15.8341 14.0104C15.9716 14.0104 16.1078 14.0376 16.2349 14.0903C16.3619 14.143 16.4773 14.2202 16.5744 14.3176L19.7729 17.552C19.867 17.6463 19.9416 17.7584 19.9922 17.8817C20.0429 18.005 20.0686 18.1371 20.068 18.2704C20.0673 18.4037 20.0402 18.5356 19.9883 18.6584C19.9365 18.7811 19.8608 18.8925 19.7657 18.9859Z" fill="#E2E2E2"/>
    </symbol>
    <symbol id="arrow" viewBox="0 0 20 20" >
        <path fill-rule="evenodd" clip-rule="evenodd" d="M16.125 6.25L17 7.12502L10.375 13.75L3.75 7.12502L4.62502 6.25L10.375 12L16.125 6.25Z" />
    </symbol>
     <symbol id="" viewBox="0 0 0 0" >
    
    </symbol>
     <symbol id="" viewBox="0 0 0 0" >
    
    </symbol>
     <symbol id="" viewBox="0 0 0 0" >
    
    </symbol>
     <symbol id="" viewBox="0 0 0 0" >
    
    </symbol>
</svg>